<svg height="512" viewBox="0 0 64 64" width="512" xmlns="http://www.w3.org/2000/svg"><linearGradient id="a" gradientUnits="userSpaceOnUse" x1="32" x2="32" y1="59" y2="5"><stop offset="0" stop-color="#9f2fff"/><stop offset="1" stop-color="#0bb1d3"/></linearGradient><path d="M60 9h-3V8c0-1.654-1.346-3-3-3h-2c-1.654 0-3 1.346-3 3v1h-2V8c0-1.654-1.346-3-3-3h-2c-1.654 0-3 1.346-3 3v1h-6V8c0-1.654-1.346-3-3-3h-2c-1.654 0-3 1.346-3 3v1h-2V8c0-1.654-1.346-3-3-3h-2c-1.654 0-3 1.346-3 3v1h-3c-1.654 0-3 1.346-3 3v21H4c-1.654 0-3 1.346-3 3v4c0 1.654 1.346 3 3 3h5v13c0 1.654 1.346 3 3 3h48c1.654 0 3-1.346 3-3V12c0-1.654-1.346-3-3-3zm-9-1c0-.551.449-1 1-1h2c.551 0 1 .449 1 1v4c0 .551-.449 1-1 1h-2c-.551 0-1-.449-1-1zM41 8c0-.551.449-1 1-1h2c.551 0 1 .449 1 1v4c0 .551-.449 1-1 1h-2c-.551 0-1-.449-1-1zM27 8c0-.551.449-1 1-1h2c.551 0 1 .449 1 1v4c0 .551-.449 1-1 1h-2c-.551 0-1-.449-1-1zM17 8c0-.551.449-1 1-1h2c.551 0 1 .449 1 1v4c0 .551-.449 1-1 1h-2c-.551 0-1-.449-1-1zm-5 3h3v1c0 1.654 1.346 3 3 3h2c1.654 0 3-1.346 3-3v-1h2v1c0 1.654 1.346 3 3 3h2c1.654 0 3-1.346 3-3v-1h6v1c0 1.654 1.346 3 3 3h2c1.654 0 3-1.346 3-3v-1h2v1c0 1.654 1.346 3 3 3h2c1.654 0 3-1.346 3-3v-1h3c.551 0 1 .449 1 1v5H11v-5c0-.551.449-1 1-1zM9 39h18v2H9zm20-3.382l3.658 1.829a.616.616 0 010 1.106L29 40.382zM27 37H9v-2h18zM3 40v-4c0-.552.449-1 1-1h3v6H4c-.551 0-1-.448-1-1zm58 16c0 .552-.449 1-1 1h-5.586L61 50.414zm-8-.414V49h6.586zM51 47v10H12c-.551 0-1-.448-1-1V43h17.236l5.317-2.658C34.445 39.895 35 38.998 35 38s-.555-1.895-1.447-2.342L28.236 33H11V19h50v28zM13 31h10V21H13zm2-8h6v6h-6zm22 8h10V21H37zm2-8h6v6h-6zm-9-2c-2.757 0-5 2.243-5 5s2.243 5 5 5 5-2.243 5-5-2.243-5-5-5zm0 8c-1.654 0-3-1.346-3-3s1.346-3 3-3 3 1.346 3 3-1.346 3-3 3zm19 4v10h10V33zm8 8h-6v-6h6zm-15-8c-2.757 0-5 2.243-5 5s2.243 5 5 5 5-2.243 5-5-2.243-5-5-5zm0 8c-1.654 0-3-1.346-3-3s1.346-3 3-3 3 1.346 3 3-1.346 3-3 3zM25 55h10V45H25zm2-8h6v6h-6zm-9-2c-2.757 0-5 2.243-5 5s2.243 5 5 5 5-2.243 5-5-2.243-5-5-5zm0 8c-1.654 0-3-1.346-3-3s1.346-3 3-3 3 1.346 3 3-1.346 3-3 3zm24-8c-2.757 0-5 2.243-5 5s2.243 5 5 5 5-2.243 5-5-2.243-5-5-5zm0 8c-1.654 0-3-1.346-3-3s1.346-3 3-3 3 1.346 3 3-1.346 3-3 3zm7.219-22.625L52.72 26l-3.5-4.375 1.562-1.249L54 24.4l3.219-4.024 1.562 1.249L55.28 26l3.5 4.375-1.562 1.249L54 27.6l-3.219 4.024z" fill="url(#a)"/></svg>