<svg height="511pt" viewBox="-110 0 511 512" width="511pt" xmlns="http://www.w3.org/2000/svg"><linearGradient id="a" gradientTransform="matrix(.33238 0 0 -.33238 -110.42 503.426)" gradientUnits="userSpaceOnUse" x1="333.707" x2="1206.678" y1="744.398" y2="744.398"><stop offset="0" stop-color="#41dfd0"/><stop offset="1" stop-color="#ee83ef"/></linearGradient><path d="M.5 255.973v162.152c.063 51.82 42.055 93.813 93.875 93.875h102.41c51.82-.063 93.817-42.055 93.88-93.875V255.973c-.067-49.95-39.235-91.106-89.126-93.637l54.184-116.063A8.536 8.536 0 00242.75 35.93l-40.96 31.848c-3.458 2.692-6.735 5.567-10.048 8.418l21.66-64.972c1.485-4.473-.937-9.305-5.41-10.79a8.54 8.54 0 00-8.297 1.669L168.06 29.75a257.294 257.294 0 00-22.145 22.027 239.596 239.596 0 00-14.277-13.492L99.992 10.59a8.541 8.541 0 00-12.043.812 8.543 8.543 0 00-1.699 8.227l16.387 51.086a264.31 264.31 0 00-38.403-26.176l-16.882-9.387a8.532 8.532 0 00-11.606 3.305 8.528 8.528 0 00-.266 7.79l54.184 116.066C39.75 164.82.551 205.995.5 255.972zm17.066 0c0-1.977.157-3.926.301-5.86l31.024-31.031 36.207 36.211L48.887 291.5l-31.32-31.328zm164.09-.68l-36.21 36.21-36.212-36.21 36.211-36.211zm-51.992-76.125h31.578l-15.781 15.777zm-20.422 172.68l36.203-36.211 36.211 36.21-36.21 36.212zm24.137 48.277l-36.211 36.21-36.211-36.21 36.211-36.21zm60.344-36.21l36.21 36.21-36.21 36.21-36.196-36.21zm-36.196-60.345l36.211-36.21 36.211 36.21-36.226 36.211zm-24.132 0l-36.227 36.211-36.211-36.21 36.211-36.212zM17.566 284.31L36.82 303.57l-19.254 19.254zm0 62.648l31.32-31.32 36.212 36.21-36.211 36.212-31.32-31.32zm0 71.168v-37.254l19.254 19.254L17.63 419.32c-.008-.402-.063-.797-.063-1.195zm3.278 22.11l28.043-28.044 36.21 36.211-33.488 33.489a77.172 77.172 0 01-30.765-41.657zm86.648 54.695l-10.324-10.325-9.953 9.957a75.526 75.526 0 01-19.63-4.539l29.556-29.554 34.488 34.46zm1.707-46.528l36.211-36.21 36.211 36.21-36.21 36.211zm94.5 46.18l-9.976-9.977-10.32 10.325h-24.169l34.461-34.461 29.625 29.633a76.046 76.046 0 01-19.62 4.48zm35.68-12.59l-33.59-33.59 36.227-36.21 28.257 28.257a77.061 77.061 0 01-30.894 41.543zm34.215-63.867c0 .484-.07.965-.078 1.45l-19.45-19.45 19.528-19.55zm0-61.66l-31.578 31.574-36.211-36.207 36.21-36.195 31.579 31.578zm0-33.367l-19.528-19.528 19.528-19.527zm-.281-72.696c.136 1.844.28 3.688.28 5.57v3.938l-31.577 31.574-36.227-36.191 36.227-36.211zm-18.274-44.379a77.216 77.216 0 015.977 7.903l-6.938-6.938zm-12.512-11.605l-.527.527-3.184-3.183c1.274.836 2.493 1.742 3.711 2.656zm-40.16-14.969l27.567 27.567-36.211 36.207-36.196-36.207 27.832-27.848h11.426c1.887 0 3.73.144 5.582.281zm9.91-98.246L225.29 71.09l-40.785 87.398a8.339 8.339 0 00-.75 3.61h-7.738l-13.453-22.41c-.708-1.176-1.508-2.297-2.235-3.465.309-.258.594-.547.852-.852l1.547-2.46a247.738 247.738 0 0149.55-51.708zM179.29 42.621l7.988-6.992-15.648 46.937c-4.457-6.27-9.219-12.296-14.211-18.125a240.718 240.718 0 0121.871-21.82zm-58.883 8.531a238.735 238.735 0 0144.332 51.922c-5.058 5.813-9.922 11.82-14.508 18.121a262.1 262.1 0 00-22.109-26.765v-.172l-16.215-50.555zM62.11 63.023a247.744 247.744 0 0185.82 85.422l8.176 13.653h-47.792zm26.403 116.442c1.937-.145 3.883-.297 5.863-.297h11.156l27.848 27.848-36.211 36.207-36.211-36.207zM51.703 192.18l-2.773 2.765-.407-.41c1.016-.793 2.04-1.62 3.18-2.355zm-15.668 14.007l.856.852-6.309 6.266a77.912 77.912 0 015.41-7.118zm169.832 97.383l-12.066 12.067-12.07-12.067 12.07-12.066zm36.149 36.211l12.07 12.067-12.07 12.066-12.067-12.066zm-108.637-84.488l12.066-12.07 12.082 12.07-12.066 12.066zm108.637-12.07l12.07 12.07-12.07 12.066-12.082-12.066zm-48.293-48.27l12.066 12.07-12.066 12.067-12.067-12.067zM145.445 363.93l-12.066-12.082 12.066-12.067 12.082 12.067zm60.344 36.21l-12.066 12.07-12.067-12.07 12.067-12.066zM97.168 291.5l12.066 12.07-12.066 12.067-12.07-12.067zm0 96.559l12.066 12.066-12.066 12.066-12.07-12.066zm60.36 60.343L145.46 460.47l-12.082-12.067 12.066-12.066zm84.488-12.066l12.07 12.066-12.07 12.067-12.067-12.067zM60.973 351.848l-12.086 12.066-12.067-12.066 12.067-12.067zm0 96.554L48.887 460.47 36.82 448.402l12.067-12.066zm36.21-229.312l-12.066-12.067 12.067-12.066 12.066 12.066zm-36.226 36.203l-12.066 12.066-12.07-12.066 12.07-12.07zm0 0" fill="url(#a)"/></svg>