<svg height="496pt" viewBox="0 0 496 496" width="496pt" xmlns="http://www.w3.org/2000/svg"><linearGradient id="a" gradientUnits="userSpaceOnUse" x1="248" x2="248" y1="496" y2="0"><stop offset="0" stop-color="#9f2fff"/><stop offset="1" stop-color="#0bb1d3"/></linearGradient><path d="M438.762 88.648l-12.84 9.543c-23.305-31.351-59.129-49.64-98.266-50.175l.215-16c44.168.609 84.586 21.25 110.89 56.632zm57.11 53.961L496 144v22.945l-13.84-9.226c-26.937-17.957-57.953-28.094-90.16-29.535V208h16v232c0 30.871-25.129 56-56 56s-56-25.129-56-56V208h16v-80h-3.313l-16-16h-9.375l-16 16H208V0h59.313l16 16h9.375l16-16h17.207c83.914 0 155.402 59.977 169.976 142.61zM224 112h16V16h-16zm88 112v16h80v-16zm80 216V256h-80v184c0 22.055 17.945 40 40 40s40-17.945 40-40zm86.32-303.383C461.762 66.2 399.023 16 325.895 16h-10.582l-16 16h-22.625l-16-16H256v96h4.688l16-16h22.625l16 16H328v96h48v-96h8c33.23 0 65.543 8.473 94.32 24.617zM376 296v144c0 13.23-10.77 24-24 24s-24-10.77-24-24V296c0-13.23 10.77-24 24-24s24 10.77 24 24zm-16 0c0-4.414-3.586-8-8-8s-8 3.586-8 8v144c0 4.414 3.586 8 8 8s8-3.586 8-8zm-104-88v16c0 13.23-10.77 24-24 24h-8v202.664l-32 42.672-32-42.672V248h-8c-13.23 0-24-10.77-24-24v-16c0-13.23 10.77-24 24-24h80c13.23 0 24 10.77 24 24zm-48 40h-32v197.336l16 21.328 16-21.328zm32-40c0-4.414-3.586-8-8-8h-80c-4.414 0-8 3.586-8 8v16c0 4.414 3.586 8 8 8h80c4.414 0 8-3.586 8-8zM96 163.312v287.352l-32 42.672-32-42.672V163.313l-32-32V88h128v43.313zM84.687 152l16-16H27.314l16 16zM16 104v16h96v-16zm64 341.336V168H48v277.336l16 21.328zm0 0" fill="url(#a)"/></svg>