<svg height="512" width="512" xmlns="http://www.w3.org/2000/svg"><linearGradient id="a" gradientUnits="userSpaceOnUse" x1="63.123" x2="370.963" y1="414.455" y2="106.615"><stop offset="0" stop-color="#41dfd0"/><stop offset="1" stop-color="#ee83ef"/></linearGradient><path d="M472 217.578h-40a8 8 0 00-8 8v8.022h-7.2a56.073 56.073 0 00-35.016 12.312l-12.084 9.993 5.271-31.481A23.931 23.931 0 00368 177.578h-18.446l-81.421-67.488a96.386 96.386 0 00-121.195-1.082l-85.794 68.57H40a23.946 23.946 0 00-3.425 47.654l73.625 64.437A72.048 72.048 0 0040.468 353.6H24a8 8 0 000 16h16.476a71.969 71.969 0 00143.048 0h29.359a8.024 8.024 0 017.547 5.125l14.648 39.128a30.559 30.559 0 0028.445 19.747 30.206 30.206 0 0029.024-21.543l26.353-87.849a55.822 55.822 0 0046.551-44.023l26.442-21.865a39.922 39.922 0 0124.907-8.72h7.2v7.976a8 8 0 008 8h40a24 24 0 100-48zm-315.078-96.07a80.31 80.31 0 01101 .9l66.555 55.164-237.657-.033zM40 193.578h328a8 8 0 010 16H40a8 8 0 010-16zM167.365 353.6h-16.172a40.08 40.08 0 00-30.493-31.006l13.935-12.194a56.1 56.1 0 0132.73 43.2zm-77.9 0a23.83 23.83 0 014.284-7.429l5.614-4.912a23.756 23.756 0 0135.17 12.341zm45.052 16a23.859 23.859 0 01-45.038 0zM112 305.578c1.23 0 2.434.106 3.645.185l-25.73 22.513a40.173 40.173 0 00-7.317 6.4L60.971 353.6h-4.336A56.042 56.042 0 01112 305.578zm0 112A56.039 56.039 0 0156.643 369.6h16.168a40 40 0 0078.378 0h16.168A56.039 56.039 0 01112 417.578zm165.234-10.152a14.344 14.344 0 01-27.179.808l-14.664-39.183a23.951 23.951 0 00-22.508-15.451h-29.351a71.254 71.254 0 00-4.08-16.971l122.216-10.674zm37.157-98.606l-2.309.2c-.144.012-.281.018-.423.037l-140.042 12.2a72.43 72.43 0 00-29.7-25.088L61.289 225.6h297.258l-8.219 49-.14.964a39.962 39.962 0 01-35.797 33.256zM472 249.578h-32v-16h32a8 8 0 010 16zm-240-104h16v16h-16zm-32-24h16v16h-16zm-32 24h16v16h-16z" fill="url(#a)"/></svg>